<svg xmlns="http://www.w3.org/2000/svg" version="1.1" xmlns:xlink="http://www.w3.org/1999/xlink" xmlns:svgjs="http://svgjs.dev/svgjs" viewBox="0 0 10.951670032134286 3.53583050936155"><g transform="matrix(1,0,0,1,5.909256363172677,0.5571843696968164)"><g><path d=" M 0.9885 0.9285 Q 0.9885 0.9375 0.984 0.9375 L 0.8160000000000001 0.9375 L 0.7575000000000001 0.939 Q 0.7365 0.939 0.7215 0.93 Q 0.7065 0.921 0.687 0.897 Q 0.6675 0.873 0.615 0.8025 L 0.5535 0.72 L 0.34500000000000003 0.447 L 0.3075 0.486 L 0.3075 0.8160000000000001 Q 0.3075 0.8625 0.315 0.8835 Q 0.3225 0.9045 0.34575 0.912 Q 0.369 0.9195 0.42 0.9195 Q 0.426 0.9195 0.426 0.9285 Q 0.426 0.9375 0.42 0.9375 Q 0.372 0.9375 0.3435 0.936 L 0.234 0.9345 L 0.1275 0.936 Q 0.099 0.9375 0.048 0.9375 Q 0.045 0.9375 0.045 0.9285 Q 0.045 0.9195 0.048 0.9195 Q 0.099 0.9195 0.12225 0.912 Q 0.1455 0.9045 0.1545 0.88275 Q 0.1635 0.861 0.1635 0.8160000000000001 L 0.1635 0.12149999999999994 Q 0.1635 0.07650000000000001 0.15525 0.055499999999999994 Q 0.147 0.034499999999999975 0.123 0.026249999999999996 Q 0.099 0.018000000000000016 0.0495 0.018000000000000016 Q 0.0465 0.018000000000000016 0.0465 0.009000000000000008 Q 0.0465 0 0.0495 0 L 0.129 0.0014999999999999458 Q 0.195 0.0044999999999999485 0.234 0.0044999999999999485 Q 0.279 0.0044999999999999485 0.34500000000000003 0.0014999999999999458 L 0.42 0 Q 0.4245 0 0.4245 0.009000000000000008 Q 0.4245 0.018000000000000016 0.42 0.018000000000000016 Q 0.3705 0.018000000000000016 0.34725 0.027000000000000024 Q 0.324 0.03600000000000003 0.31575000000000003 0.05774999999999997 Q 0.3075 0.07950000000000002 0.3075 0.12449999999999994 L 0.3075 0.441 L 0.6015 0.14400000000000002 Q 0.648 0.09750000000000003 0.648 0.06599999999999995 Q 0.648 0.04349999999999998 0.62475 0.030749999999999944 Q 0.6015 0.018000000000000016 0.5565 0.018000000000000016 Q 0.5535 0.018000000000000016 0.5535 0.009000000000000008 Q 0.5535 0 0.5565 0 L 0.624 0.0014999999999999458 Q 0.6900000000000001 0.0044999999999999485 0.744 0.0044999999999999485 Q 0.8025 0.0044999999999999485 0.8625 0.0014999999999999458 L 0.927 0 Q 0.9315 0 0.9315 0.009000000000000008 Q 0.9315 0.018000000000000016 0.927 0.018000000000000016 Q 0.861 0.018000000000000016 0.78225 0.05399999999999994 Q 0.7035 0.08999999999999997 0.639 0.15300000000000002 L 0.447 0.345 L 0.6675 0.6375 Q 0.7695 0.777 0.82125 0.83475 Q 0.873 0.8925 0.903 0.906 Q 0.933 0.9195 0.984 0.9195 Q 0.9885 0.9195 0.9885 0.9285 M 1.516528564453125 0.843 Q 1.519528564453125 0.843 1.523278564453125 0.849 Q 1.527028564453125 0.855 1.524028564453125 0.858 Q 1.4700285644531248 0.909 1.414528564453125 0.93225 Q 1.359028564453125 0.9555 1.293028564453125 0.9555 Q 1.200028564453125 0.9555 1.133278564453125 0.91575 Q 1.066528564453125 0.876 1.031278564453125 0.80925 Q 0.9960285644531249 0.7424999999999999 0.9960285644531249 0.6659999999999999 Q 0.9960285644531249 0.5775 1.040278564453125 0.504 Q 1.0845285644531248 0.4305 1.1617785644531249 0.38775000000000004 Q 1.239028564453125 0.345 1.332028564453125 0.345 Q 1.420528564453125 0.345 1.468528564453125 0.38475000000000004 Q 1.516528564453125 0.4245 1.516528564453125 0.4935 Q 1.516528564453125 0.534 1.500028564453125 0.534 L 1.417528564453125 0.534 L 1.135528564453125 0.5369999999999999 Q 1.1310285644531248 0.5685 1.1310285644531248 0.6045 Q 1.1310285644531248 0.735 1.191778564453125 0.81225 Q 1.252528564453125 0.8895 1.360528564453125 0.8895 Q 1.399528564453125 0.8895 1.440028564453125 0.87825 Q 1.480528564453125 0.867 1.5135285644531251 0.8445 L 1.516528564453125 0.843 M 1.192528564453125 0.41100000000000003 Q 1.156528564453125 0.447 1.141528564453125 0.51 L 1.375528564453125 0.5055000000000001 Q 1.3725285644531249 0.444 1.348528564453125 0.4095 Q 1.324528564453125 0.375 1.278028564453125 0.375 Q 1.228528564453125 0.375 1.192528564453125 0.41100000000000003 M 2.20049560546875 0.351 Q 2.2079956054687497 0.357 2.2079956054687497 0.36149999999999993 L 2.2079956054687497 1.0425 Q 2.2079956054687497 1.1865 2.12849560546875 1.27275 Q 2.04899560546875 1.359 1.8929956054687498 1.359 Q 1.80299560546875 1.359 1.73999560546875 1.3275000000000001 Q 1.6769956054687498 1.296 1.6769956054687498 1.2405 Q 1.6769956054687498 1.212 1.6957456054687499 1.19475 Q 1.71449560546875 1.1775 1.74449560546875 1.1775 Q 1.7759956054687498 1.1775 1.7939956054687498 1.19325 Q 1.8119956054687498 1.209 1.8359956054687498 1.245 Q 1.86149560546875 1.2855 1.8877456054687498 1.3065 Q 1.91399560546875 1.3275000000000001 1.96199560546875 1.3275000000000001 Q 2.0204956054687497 1.3275000000000001 2.0534956054687497 1.275 Q 2.08649560546875 1.2225000000000001 2.08649560546875 1.0785 L 2.08649560546875 0.8325 Q 1.9769956054687499 0.954 1.8569956054687498 0.954 Q 1.7759956054687498 0.954 1.7309956054687499 0.90375 Q 1.68599560546875 0.8535 1.68599560546875 0.7665 L 1.68599560546875 0.5429999999999999 Q 1.68599560546875 0.4905 1.67549560546875 0.46575 Q 1.6649956054687498 0.441 1.6409956054687498 0.441 Q 1.6259956054687499 0.441 1.59899560546875 0.453 L 1.59749560546875 0.453 Q 1.59149560546875 0.453 1.5884956054687498 0.4455 Q 1.58549560546875 0.438 1.5899956054687499 0.43499999999999994 L 1.78049560546875 0.34650000000000003 L 1.78649560546875 0.345 Q 1.79249560546875 0.345 1.8007456054687498 0.351 Q 1.80899560546875 0.357 1.80899560546875 0.36149999999999993 L 1.80899560546875 0.702 Q 1.80899560546875 0.786 1.83824560546875 0.82575 Q 1.86749560546875 0.8654999999999999 1.9304956054687499 0.8654999999999999 Q 1.96949560546875 0.8654999999999999 2.01149560546875 0.84825 Q 2.0534956054687497 0.831 2.08649560546875 0.8009999999999999 L 2.08649560546875 0.5429999999999999 Q 2.08649560546875 0.4905 2.07524560546875 0.46575 Q 2.06399560546875 0.441 2.03999560546875 0.441 Q 2.02649560546875 0.441 1.9994956054687498 0.453 L 1.9979956054687498 0.453 Q 1.99199560546875 0.453 1.9882456054687498 0.4455 Q 1.98449560546875 0.438 1.99049560546875 0.43499999999999994 L 2.17949560546875 0.34650000000000003 L 2.18699560546875 0.345 Q 2.19299560546875 0.345 2.20049560546875 0.351 M 3.5910366210937497 0.009000000000000008 Q 3.5910366210937497 0.018000000000000016 3.5880366210937495 0.018000000000000016 Q 3.53853662109375 0.018000000000000016 3.4755366210937497 0.06974999999999998 Q 3.41253662109375 0.12149999999999994 3.36303662109375 0.2025 L 3.1920366210937496 0.48 L 3.1920366210937496 0.8160000000000001 Q 3.1920366210937496 0.8625 3.20028662109375 0.8835 Q 3.20853662109375 0.9045 3.23178662109375 0.912 Q 3.25503662109375 0.9195 3.3060366210937495 0.9195 Q 3.3105366210937497 0.9195 3.3105366210937497 0.9285 Q 3.3105366210937497 0.9375 3.3060366210937495 0.9375 Q 3.25653662109375 0.9375 3.2295366210937497 0.936 L 3.1200366210937496 0.9345 L 3.01203662109375 0.936 Q 2.9820366210937497 0.9375 2.9325366210937496 0.9375 Q 2.92953662109375 0.9375 2.92953662109375 0.9285 Q 2.92953662109375 0.9195 2.9325366210937496 0.9195 Q 2.9835366210937497 0.9195 3.0067866210937497 0.912 Q 3.0300366210937497 0.9045 3.0390366210937496 0.88275 Q 3.04803662109375 0.861 3.04803662109375 0.8160000000000001 L 3.04803662109375 0.507 L 2.8200366210937498 0.15900000000000003 Q 2.7690366210937496 0.07950000000000002 2.73228662109375 0.04874999999999996 Q 2.69553662109375 0.018000000000000016 2.66103662109375 0.018000000000000016 Q 2.6565366210937498 0.018000000000000016 2.6565366210937498 0.009000000000000008 Q 2.6565366210937498 0 2.66103662109375 0 L 2.7105366210937496 0.0014999999999999458 Q 2.74353662109375 0.0044999999999999485 2.7585366210937496 0.0044999999999999485 Q 2.80953662109375 0.0044999999999999485 2.9025366210937498 0.0014999999999999458 L 2.9955366210937497 0 Q 2.99853662109375 0 2.99853662109375 0.009000000000000008 Q 2.99853662109375 0.018000000000000016 2.9955366210937497 0.018000000000000016 Q 2.9340366210937496 0.018000000000000016 2.9340366210937496 0.05999999999999994 Q 2.9340366210937496 0.08099999999999996 2.95203662109375 0.10799999999999998 L 3.1695366210937497 0.4425 L 3.3225366210937497 0.19199999999999995 Q 3.36003662109375 0.13049999999999995 3.36003662109375 0.08399999999999996 Q 3.36003662109375 0.018000000000000016 3.2775366210937498 0.018000000000000016 Q 3.2745366210937497 0.018000000000000016 3.2745366210937497 0.009000000000000008 Q 3.2745366210937497 0 3.2775366210937498 0 L 3.3555366210937496 0.0014999999999999458 Q 3.41853662109375 0.0044999999999999485 3.4710366210937496 0.0044999999999999485 Q 3.4965366210937496 0.0044999999999999485 3.5325366210937497 0.0014999999999999458 L 3.5880366210937495 0 Q 3.5910366210937497 0 3.5910366210937497 0.009000000000000008 M 3.984100341796875 0.843 Q 3.9871003417968747 0.843 3.990850341796875 0.849 Q 3.9946003417968745 0.855 3.991600341796875 0.858 Q 3.9376003417968746 0.909 3.8821003417968747 0.93225 Q 3.826600341796875 0.9555 3.7606003417968745 0.9555 Q 3.6676003417968746 0.9555 3.6008503417968747 0.91575 Q 3.534100341796875 0.876 3.498850341796875 0.80925 Q 3.463600341796875 0.7424999999999999 3.463600341796875 0.6659999999999999 Q 3.463600341796875 0.5775 3.5078503417968747 0.504 Q 3.5521003417968746 0.4305 3.629350341796875 0.38775000000000004 Q 3.7066003417968747 0.345 3.7996003417968747 0.345 Q 3.888100341796875 0.345 3.936100341796875 0.38475000000000004 Q 3.984100341796875 0.4245 3.984100341796875 0.4935 Q 3.984100341796875 0.534 3.967600341796875 0.534 L 3.885100341796875 0.534 L 3.6031003417968748 0.5369999999999999 Q 3.5986003417968746 0.5685 3.5986003417968746 0.6045 Q 3.5986003417968746 0.735 3.6593503417968747 0.81225 Q 3.7201003417968748 0.8895 3.828100341796875 0.8895 Q 3.8671003417968746 0.8895 3.9076003417968748 0.87825 Q 3.9481003417968745 0.867 3.981100341796875 0.8445 L 3.984100341796875 0.843 M 3.6601003417968747 0.41100000000000003 Q 3.6241003417968747 0.447 3.6091003417968746 0.51 L 3.8431003417968745 0.5055000000000001 Q 3.840100341796875 0.444 3.816100341796875 0.4095 Q 3.792100341796875 0.375 3.745600341796875 0.375 Q 3.6961003417968747 0.375 3.6601003417968747 0.41100000000000003 M 4.235317382812499 0.5145 Q 4.2675673828125 0.546 4.329067382812499 0.5805 Q 4.3830673828124995 0.6105 4.4123173828125 0.63 Q 4.4415673828125 0.6495 4.4633173828125 0.6825 Q 4.4850673828125 0.7155 4.4850673828125 0.762 Q 4.4850673828125 0.813 4.4595673828125 0.8565 Q 4.4340673828125 0.9 4.3838173828124996 0.927 Q 4.333567382812499 0.954 4.2645673828124995 0.954 Q 4.1820673828125 0.954 4.1130673828125 0.912 Q 4.1040673828125 0.903 4.1040673828125 0.894 L 4.1010673828124995 0.756 Q 4.1010673828124995 0.7515000000000001 4.1093173828125 0.75075 Q 4.117567382812499 0.75 4.119067382812499 0.753 Q 4.144567382812499 0.828 4.1963173828124996 0.876 Q 4.2480673828125 0.924 4.306567382812499 0.924 Q 4.3440673828125 0.924 4.3650673828125 0.9045 Q 4.3860673828125 0.885 4.3860673828125 0.846 Q 4.3860673828125 0.789 4.353067382812499 0.75525 Q 4.3200673828125 0.7215 4.2570673828125 0.6885 Q 4.2060673828125 0.6615 4.1775673828125 0.6427499999999999 Q 4.1490673828124995 0.624 4.1288173828125 0.59175 Q 4.1085673828125 0.5595 4.1085673828125 0.5115000000000001 Q 4.1085673828125 0.42599999999999993 4.1708173828124995 0.384 Q 4.2330673828125 0.34199999999999997 4.3215673828125 0.34199999999999997 Q 4.380067382812499 0.34199999999999997 4.4415673828125 0.36449999999999994 Q 4.4550673828125 0.37049999999999994 4.4550673828125 0.381 Q 4.4550673828125 0.4155 4.4535673828124995 0.43499999999999994 L 4.4520673828124995 0.507 Q 4.4520673828124995 0.5115000000000001 4.4430673828125 0.5115000000000001 Q 4.4340673828125 0.5115000000000001 4.4340673828125 0.507 Q 4.4340673828125 0.477 4.4100673828125 0.44475 Q 4.3860673828125 0.4125 4.3485673828125 0.39149999999999996 Q 4.3110673828124995 0.37049999999999994 4.2720673828125 0.37049999999999994 Q 4.2030673828125 0.37049999999999994 4.2030673828125 0.4365 Q 4.2030673828125 0.483 4.235317382812499 0.5145" fill="#3f170e" fill-rule="nonzero"></path></g><g><path d=" M 0.46425 1.8017625 Q 0.46425 1.8062624999999999 0.46275 1.8062624999999999 Q 0.43725 1.8062624999999999 0.407625 1.8291374999999999 Q 0.378 1.8520124999999998 0.35475 1.8895125 L 0.26175 2.0357625 L 0.26175 2.2052625 Q 0.26175 2.2285125 0.26587500000000003 2.2390125 Q 0.27 2.2495125 0.282375 2.2532625 Q 0.29475 2.2570125 0.32175 2.2570125 Q 0.324 2.2570125 0.324 2.2615125 Q 0.324 2.2660125 0.32175 2.2660125 Q 0.2985 2.2660125 0.28500000000000003 2.2652625 L 0.231 2.2645125 L 0.1785 2.2652625 Q 0.165 2.2660125 0.14025 2.2660125 Q 0.138 2.2660125 0.138 2.2615125 Q 0.138 2.2570125 0.14025 2.2570125 Q 0.16725 2.2570125 0.18 2.2532625 Q 0.19275 2.2495125 0.19725 2.2386375 Q 0.20175 2.2277625 0.20175 2.2052625 L 0.20175 2.0485125 L 0.0825 1.8707625 Q 0.0585 1.8347625 0.040125 1.8205125 Q 0.021750000000000002 1.8062624999999999 0.00075 1.8062624999999999 Q -0.0015 1.8062624999999999 -0.0015 1.8017625 Q -0.0015 1.7972625 0.00075 1.7972625 Q 0.009000000000000001 1.7972625 0.027 1.7987625 L 0.051750000000000004 1.7995125 Q 0.0765 1.7995125 0.12 1.7980125 L 0.1635 1.7972625 Q 0.165 1.7972625 0.165 1.8017625 Q 0.165 1.8062624999999999 0.1635 1.8062624999999999 Q 0.12825 1.8062624999999999 0.12825 1.8242625 Q 0.12825 1.8325125 0.1365 1.8452625 L 0.252 2.0177625 L 0.336 1.8850125 Q 0.354 1.8557625 0.354 1.8370125 Q 0.354 1.8220125 0.3435 1.8141375 Q 0.333 1.8062624999999999 0.31275000000000003 1.8062624999999999 Q 0.3105 1.8062624999999999 0.3105 1.8017625 Q 0.3105 1.7972625 0.31275000000000003 1.7972625 L 0.34950000000000003 1.7980125 Q 0.3795 1.7995125 0.40425 1.7995125 Q 0.417 1.7995125 0.435 1.7980125 L 0.46275 1.7972625 Q 0.46425 1.7972625 0.46425 1.8017625 M 0.6573962402343749 2.2217625 Q 0.659646240234375 2.2217625 0.6615212402343749 2.2243875 Q 0.6633962402343749 2.2270125 0.6618962402343749 2.2292625 Q 0.635646240234375 2.2532625 0.608271240234375 2.2641375 Q 0.5808962402343749 2.2750125 0.5493962402343749 2.2750125 Q 0.5043962402343749 2.2750125 0.47177124023437494 2.2551375 Q 0.43914624023437493 2.2352625 0.42227124023437496 2.2022625 Q 0.4053962402343749 2.1692625 0.4053962402343749 2.1310124999999998 Q 0.4053962402343749 2.0867625 0.42677124023437496 2.0496375 Q 0.44814624023437494 2.0125125 0.48602124023437493 1.9911375 Q 0.523896240234375 1.9697624999999999 0.5696462402343749 1.9697624999999999 Q 0.611646240234375 1.9697624999999999 0.634896240234375 1.9896375 Q 0.658146240234375 2.0095125 0.658146240234375 2.0440125 Q 0.658146240234375 2.0627625 0.6498962402343749 2.0627625 L 0.613896240234375 2.0627625 L 0.46614624023437495 2.0642625 Q 0.46314624023437495 2.0792625 0.46314624023437495 2.1010125 Q 0.46314624023437495 2.1655125 0.49427124023437496 2.2052625 Q 0.5253962402343749 2.2450125 0.5801462402343749 2.2450125 Q 0.623646240234375 2.2450125 0.6566462402343749 2.2217625 L 0.6573962402343749 2.2217625 M 0.4961462402343749 2.0023875 Q 0.47664624023437496 2.0200125 0.4683962402343749 2.0522625 L 0.5973962402343749 2.0492625 Q 0.596646240234375 2.0192625 0.582396240234375 2.0020125 Q 0.5681462402343749 1.9847625 0.5433962402343749 1.9847625 Q 0.5156462402343749 1.9847625 0.4961462402343749 2.0023875 M 0.784904296875 2.0597625 Q 0.8017792968749999 2.0755125 0.833279296875 2.0920125 Q 0.8602792968749999 2.1062625 0.874904296875 2.1163875 Q 0.8895292968749999 2.1265125 0.900029296875 2.1422625 Q 0.910529296875 2.1580125 0.910529296875 2.1812625 Q 0.910529296875 2.2195125 0.881654296875 2.2468875 Q 0.852779296875 2.2742625 0.802529296875 2.2742625 Q 0.7635292968749999 2.2742625 0.729029296875 2.2525125 Q 0.724529296875 2.2480125 0.724529296875 2.2435125 L 0.723029296875 2.1797625 Q 0.723029296875 2.1775125 0.727154296875 2.1771375 Q 0.7312792968749999 2.1767625 0.732029296875 2.1790125 Q 0.745529296875 2.2165125 0.769904296875 2.2382625 Q 0.794279296875 2.2600125 0.824279296875 2.2600125 Q 0.845279296875 2.2600125 0.856904296875 2.2495125 Q 0.868529296875 2.2390125 0.868529296875 2.2187625 Q 0.868529296875 2.1977625 0.859529296875 2.1831375 Q 0.850529296875 2.1685125 0.837404296875 2.1598875 Q 0.824279296875 2.1512625 0.8017792968749999 2.1392625 Q 0.777029296875 2.1272625 0.762404296875 2.1175125 Q 0.747779296875 2.1077624999999998 0.737654296875 2.0920125 Q 0.727529296875 2.0762625 0.727529296875 2.0522625 Q 0.727529296875 2.0102625 0.758279296875 1.9888875 Q 0.789029296875 1.9675125 0.831779296875 1.9675125 Q 0.861029296875 1.9675125 0.888779296875 1.9787625 Q 0.8955292968749999 1.9810124999999998 0.8955292968749999 1.9870125 Q 0.8955292968749999 2.0035125 0.894779296875 2.0125125 L 0.894029296875 2.0462625 Q 0.894029296875 2.0477625 0.8895292968749999 2.0477625 Q 0.885029296875 2.0477625 0.885029296875 2.0462625 Q 0.885029296875 2.0312625 0.873029296875 2.0162625 Q 0.861029296875 2.0012625 0.8426542968749999 1.9918875 Q 0.824279296875 1.9825125 0.805529296875 1.9825125 Q 0.788279296875 1.9825125 0.7781542968749999 1.9911375 Q 0.768029296875 1.9997625 0.768029296875 2.0192625 Q 0.768029296875 2.0440125 0.784904296875 2.0597625 M 1.6260454101562498 1.9810124999999998 Q 1.6260454101562498 1.9855125 1.62379541015625 1.9855125 Q 1.6042954101562499 1.9855125 1.58967041015625 1.9990125 Q 1.5750454101562499 2.0125125 1.56229541015625 2.0447625 L 1.47679541015625 2.2652625 Q 1.47604541015625 2.2682625 1.46854541015625 2.2682625 Q 1.46179541015625 2.2682625 1.45954541015625 2.2652625 L 1.36054541015625 2.0515125 L 1.28329541015625 2.2652625 Q 1.28254541015625 2.2682625 1.2750454101562498 2.2682625 Q 1.26829541015625 2.2682625 1.26604541015625 2.2652625 L 1.16854541015625 2.0387625 Q 1.15504541015625 2.0065125 1.14379541015625 1.9960125 Q 1.13254541015625 1.9855125 1.11679541015625 1.9855125 Q 1.11454541015625 1.9855125 1.11454541015625 1.9810124999999998 Q 1.11454541015625 1.9765125000000001 1.11679541015625 1.9765125000000001 Q 1.13104541015625 1.9765125000000001 1.13929541015625 1.9772625 L 1.17454541015625 1.9780125 L 1.2232954101562499 1.9772625 Q 1.2345454101562499 1.9765125000000001 1.25404541015625 1.9765125000000001 Q 1.25629541015625 1.9765125000000001 1.25629541015625 1.9810124999999998 Q 1.25629541015625 1.9855125 1.25404541015625 1.9855125 Q 1.2345454101562499 1.9855125 1.2236704101562499 1.9896375 Q 1.21279541015625 1.9937624999999999 1.21279541015625 2.0035125 Q 1.21279541015625 2.0087625 1.21579541015625 2.0147625 L 1.29304541015625 2.1902625 L 1.37029541015625 1.9765125000000001 Q 1.37104541015625 1.9735125 1.37854541015625 1.9735125 Q 1.38604541015625 1.9735125 1.38679541015625 1.9765125000000001 L 1.48804541015625 2.1940125 L 1.5457954101562499 2.0417625 Q 1.55104541015625 2.0260125 1.55104541015625 2.0185125 Q 1.55104541015625 1.9855125 1.49554541015625 1.9855125 Q 1.49404541015625 1.9855125 1.49404541015625 1.9810124999999998 Q 1.49404541015625 1.9765125000000001 1.49554541015625 1.9765125000000001 Q 1.51579541015625 1.9765125000000001 1.52629541015625 1.9772625 L 1.57129541015625 1.9780125 L 1.59979541015625 1.9772625 Q 1.60729541015625 1.9765125000000001 1.62379541015625 1.9765125000000001 Q 1.6260454101562498 1.9765125000000001 1.6260454101562498 1.9810124999999998 M 1.9024357910156247 2.2217625 Q 1.9046857910156247 2.2217625 1.9065607910156248 2.2243875 Q 1.9084357910156249 2.2270125 1.9069357910156248 2.2292625 Q 1.8806857910156247 2.2532625 1.8533107910156248 2.2641375 Q 1.8259357910156249 2.2750125 1.7944357910156248 2.2750125 Q 1.7494357910156249 2.2750125 1.7168107910156247 2.2551375 Q 1.6841857910156248 2.2352625 1.6673107910156248 2.2022625 Q 1.6504357910156249 2.1692625 1.6504357910156249 2.1310124999999998 Q 1.6504357910156249 2.0867625 1.6718107910156248 2.0496375 Q 1.6931857910156247 2.0125125 1.7310607910156248 1.9911375 Q 1.7689357910156247 1.9697624999999999 1.8146857910156249 1.9697624999999999 Q 1.8566857910156247 1.9697624999999999 1.8799357910156247 1.9896375 Q 1.9031857910156247 2.0095125 1.9031857910156247 2.0440125 Q 1.9031857910156247 2.0627625 1.8949357910156248 2.0627625 L 1.8589357910156248 2.0627625 L 1.7111857910156247 2.0642625 Q 1.7081857910156248 2.0792625 1.7081857910156248 2.1010125 Q 1.7081857910156248 2.1655125 1.7393107910156247 2.2052625 Q 1.7704357910156248 2.2450125 1.8251857910156248 2.2450125 Q 1.8686857910156247 2.2450125 1.9016857910156248 2.2217625 L 1.9024357910156247 2.2217625 M 1.7411857910156248 2.0023875 Q 1.7216857910156247 2.0200125 1.7134357910156248 2.0522625 L 1.8424357910156248 2.0492625 Q 1.8416857910156248 2.0192625 1.8274357910156247 2.0020125 Q 1.8131857910156248 1.9847625 1.7884357910156248 1.9847625 Q 1.7606857910156248 1.9847625 1.7411857910156248 2.0023875 M 2.477700439453125 2.2615125 Q 2.477700439453125 2.2660125 2.476200439453125 2.2660125 Q 2.4574504394531247 2.2660125 2.4469504394531247 2.2652625 L 2.404950439453125 2.2645125 L 2.3502004394531246 2.2652625 Q 2.338200439453125 2.2660125 2.3172004394531247 2.2660125 Q 2.314950439453125 2.2660125 2.314950439453125 2.2615125 Q 2.314950439453125 2.2570125 2.3172004394531247 2.2570125 Q 2.3509504394531247 2.2570125 2.3509504394531247 2.2420125 Q 2.3509504394531247 2.2352625 2.344200439453125 2.2262625 L 2.254950439453125 2.1055125 L 2.2242004394531247 2.1310124999999998 L 2.2242004394531247 2.2052625 Q 2.2242004394531247 2.2367624999999998 2.2332004394531246 2.2468875 Q 2.242200439453125 2.2570125 2.2699504394531247 2.2570125 Q 2.2722004394531248 2.2570125 2.2722004394531248 2.2615125 Q 2.2722004394531248 2.2660125 2.2699504394531247 2.2660125 Q 2.251200439453125 2.2660125 2.240700439453125 2.2652625 L 2.1994504394531247 2.2645125 L 2.156700439453125 2.2652625 Q 2.146200439453125 2.2660125 2.1282004394531246 2.2660125 Q 2.126700439453125 2.2660125 2.126700439453125 2.2615125 Q 2.126700439453125 2.2570125 2.1282004394531246 2.2570125 Q 2.155950439453125 2.2570125 2.1645754394531247 2.2468875 Q 2.173200439453125 2.2367624999999998 2.173200439453125 2.2052625 L 2.173200439453125 1.8197625 Q 2.173200439453125 1.7927625 2.168325439453125 1.7811375 Q 2.1634504394531247 1.7695125 2.150700439453125 1.7695125 Q 2.137200439453125 1.7695125 2.1177004394531247 1.7792625 L 2.1162004394531246 1.7792625 Q 2.113950439453125 1.7792625 2.112450439453125 1.7755125 Q 2.110950439453125 1.7717625 2.113200439453125 1.7710124999999999 L 2.2122004394531247 1.7230124999999998 L 2.215950439453125 1.7222624999999998 Q 2.218950439453125 1.7222624999999998 2.221575439453125 1.7245125 Q 2.2242004394531247 1.7267625 2.2242004394531247 1.7297625 L 2.2242004394531247 2.1175125 L 2.314950439453125 2.0395125 Q 2.337450439453125 2.0200125 2.337450439453125 2.0057625 Q 2.337450439453125 1.9967625 2.3277004394531247 1.9911375 Q 2.3179504394531247 1.9855125 2.299200439453125 1.9855125 Q 2.297700439453125 1.9855125 2.297700439453125 1.9810124999999998 Q 2.297700439453125 1.9765125000000001 2.299200439453125 1.9765125000000001 Q 2.320200439453125 1.9765125000000001 2.332200439453125 1.9772625 L 2.3877004394531247 1.9780125 L 2.438700439453125 1.9772625 Q 2.449200439453125 1.9765125000000001 2.4672004394531246 1.9765125000000001 Q 2.4687004394531247 1.9765125000000001 2.4687004394531247 1.9810124999999998 Q 2.4687004394531247 1.9855125 2.4672004394531246 1.9855125 Q 2.437950439453125 1.9855125 2.401575439453125 1.9997625 Q 2.3652004394531247 2.0140124999999998 2.331450439453125 2.0425125 L 2.2932004394531247 2.0740125 L 2.390700439453125 2.2052625 Q 2.428950439453125 2.2570125 2.476200439453125 2.2570125 Q 2.477700439453125 2.2570125 2.477700439453125 2.2615125 M 2.74434228515625 2.2217625 Q 2.74659228515625 2.2217625 2.74846728515625 2.2243875 Q 2.75034228515625 2.2270125 2.74884228515625 2.2292625 Q 2.72259228515625 2.2532625 2.6952172851562497 2.2641375 Q 2.66784228515625 2.2750125 2.6363422851562497 2.2750125 Q 2.5913422851562498 2.2750125 2.55871728515625 2.2551375 Q 2.52609228515625 2.2352625 2.5092172851562498 2.2022625 Q 2.49234228515625 2.1692625 2.49234228515625 2.1310124999999998 Q 2.49234228515625 2.0867625 2.51371728515625 2.0496375 Q 2.53509228515625 2.0125125 2.57296728515625 1.9911375 Q 2.61084228515625 1.9697624999999999 2.65659228515625 1.9697624999999999 Q 2.69859228515625 1.9697624999999999 2.72184228515625 1.9896375 Q 2.74509228515625 2.0095125 2.74509228515625 2.0440125 Q 2.74509228515625 2.0627625 2.73684228515625 2.0627625 L 2.70084228515625 2.0627625 L 2.55309228515625 2.0642625 Q 2.55009228515625 2.0792625 2.55009228515625 2.1010125 Q 2.55009228515625 2.1655125 2.58121728515625 2.2052625 Q 2.6123422851562497 2.2450125 2.66709228515625 2.2450125 Q 2.71059228515625 2.2450125 2.7435922851562498 2.2217625 L 2.74434228515625 2.2217625 M 2.58309228515625 2.0023875 Q 2.56359228515625 2.0200125 2.5553422851562497 2.0522625 L 2.6843422851562497 2.0492625 Q 2.6835922851562497 2.0192625 2.66934228515625 2.0020125 Q 2.65509228515625 1.9847625 2.63034228515625 1.9847625 Q 2.6025922851562497 1.9847625 2.58309228515625 2.0023875 M 3.085225341796875 1.9720125 Q 3.088225341796875 1.9742625 3.088225341796875 1.9772625 L 3.088225341796875 2.3185125 Q 3.088225341796875 2.3897625 3.048850341796875 2.4332625 Q 3.009475341796875 2.4767625 2.9352253417968748 2.4767625 Q 2.891725341796875 2.4767625 2.861725341796875 2.4606375 Q 2.831725341796875 2.4445125 2.831725341796875 2.4182625 Q 2.831725341796875 2.4055125 2.839975341796875 2.3983875 Q 2.848225341796875 2.3912625 2.860225341796875 2.3912625 Q 2.872975341796875 2.3912625 2.881225341796875 2.3983875 Q 2.889475341796875 2.4055125 2.8992253417968747 2.4197625 Q 2.912725341796875 2.4392625 2.927350341796875 2.4501375 Q 2.941975341796875 2.4610125 2.968225341796875 2.4610125 Q 3.000475341796875 2.4610125 3.018850341796875 2.4343875 Q 3.037225341796875 2.4077625 3.037225341796875 2.3365125 L 3.037225341796875 2.2105125 Q 2.9817253417968748 2.2727625 2.919475341796875 2.2727625 Q 2.880475341796875 2.2727625 2.859100341796875 2.2483874999999998 Q 2.837725341796875 2.2240125 2.837725341796875 2.1805125 L 2.837725341796875 2.0672625 Q 2.837725341796875 2.0387625 2.832475341796875 2.0263875 Q 2.827225341796875 2.0140124999999998 2.815225341796875 2.0140124999999998 Q 2.803975341796875 2.0140124999999998 2.791225341796875 2.0200125 L 2.789725341796875 2.0200125 Q 2.787475341796875 2.0200125 2.786350341796875 2.0162625 Q 2.785225341796875 2.0125125 2.787475341796875 2.0117625 L 2.876725341796875 1.9705125 L 2.878975341796875 1.9697624999999999 Q 2.881975341796875 1.9697624999999999 2.885350341796875 1.9720125 Q 2.888725341796875 1.9742625 2.888725341796875 1.9772625 L 2.888725341796875 2.1520125 Q 2.888725341796875 2.1947625 2.904100341796875 2.2153875 Q 2.919475341796875 2.2360125 2.950975341796875 2.2360125 Q 2.972725341796875 2.2360125 2.995600341796875 2.2255125 Q 3.018475341796875 2.2150125 3.037225341796875 2.1962625 L 3.037225341796875 2.0672625 Q 3.037225341796875 2.0387625 3.031975341796875 2.0263875 Q 3.026725341796875 2.0140124999999998 3.014725341796875 2.0140124999999998 Q 3.004225341796875 2.0140124999999998 2.991475341796875 2.0200125 L 2.989975341796875 2.0200125 Q 2.987725341796875 2.0200125 2.986600341796875 2.0162625 Q 2.985475341796875 2.0125125 2.987725341796875 2.0117625 L 3.076225341796875 1.9705125 L 3.079225341796875 1.9697624999999999 Q 3.082225341796875 1.9697624999999999 3.085225341796875 1.9720125" fill="#3f170e" fill-rule="nonzero"></path></g><g clip-path="url(#SvgjsClipPath1005)"><g clip-path="url(#a002fe9f9-8815-4e16-b380-1adc1294917a9b49774f-bc46-4df8-9003-03e250cf13d5)"><path d=" M -0.5153603542949412 0.5841454195877156 C -0.6223328756766673 0.31671411613339995 -0.7259873908120618 0.21175451854111482 -0.9932859740165245 0.10033586878930445 C -1.2505641783570658 -0.0069242131337705695 -1.4523874383005877 -0.06994421177242602 -1.738222616401221 -0.0523808987085115 C -2.0124668926813376 -0.03550330693550545 -2.329756769997194 0.1018842717042591 -2.4682061106357844 0.34757157422428253 C -2.5226656531589047 0.44423615620073903 -2.538702683349507 0.5939888381184989 -2.6124287821429917 0.6766293136937945 C -2.6770856638631706 0.7490945701136735 -2.6989181449640314 0.7011383198333628 -2.806377307261887 0.6873796539319084 C -2.9174199163057795 0.673200707239252 -3.0342579762599313 0.7408437945811293 -3.13094467827803 0.7298722539265933 C -3.1863775026334076 0.7235901621002057 -3.1683054286117227 0.7256030858896468 -3.2039629357389643 0.66877669891081 C -3.26638569325328 0.569324991687435 -3.2743267882028335 0.43472453829458885 -3.3418150352532154 0.3359585523621224 C -3.409059961845533 0.237502247012647 -3.5856663743169355 0.1090732852379773 -3.695757821570213 0.05034457467791045 C -3.9043498142562516 -0.060874994699120104 -4.254576433577357 -0.06534324311084644 -4.4818819814927044 -0.010131619171890906 C -4.69735330712947 0.042204399353577296 -5.028158529888716 0.16114386326373906 -5.163599544863965 0.3422627642301522 C -5.462507667575147 0.7420382768298087 -5.477748376266629 1.3975214708134096 -5.257388521426936 1.8325784498323903 C -5.135153171312084 2.0739081041488987 -4.922535331047165 2.1890429208965996 -4.6717382989077905 2.2680335896009307 C -4.335734866362625 2.3738558688172624 -4.117387935312372 2.310105908804414 -3.800142298079801 2.1813672664467534 C -3.529061187754521 2.0713642993600443 -3.3202258746104185 1.900464857632332 -3.2057988991952677 1.6258003005610138 C -3.147549088896014 1.4860842261394072 -3.1165263884521432 1.3365265802434978 -3.1143988871296573 1.1851690710481961 C -3.112562923673354 1.0587309130213252 -3.1822631748879564 0.9468035023117438 -3.0425972319590446 0.8952859253270375 C -2.917574756597275 0.8491656385030301 -2.711769889158156 0.8787843742619489 -2.67717414402974 0.9919062672202095 C -2.6622209958796064 1.040791559249493 -2.687459963393368 1.1190080264963467 -2.686464561519468 1.1705034834394108 C -2.6832792755229895 1.338748520170058 -2.643994081566425 1.5064405558596499 -2.571086424313702 1.658117681400282 C -2.42151070272908 1.9694572675143844 -2.158857328269482 2.089878774214574 -1.856078198270915 2.2166266128244354 C -1.5207826070583002 2.3570003970858986 -1.1855754960122544 2.3233336937064557 -0.8604772439966979 2.1480987238168696 C -0.3319188489560956 1.8632368275484932 -0.32156666946754164 1.067357729261787 -0.5153603542949412 0.5841454195877156 C -0.5298268615289459 0.5479570314610605 -0.4439126197906038 0.7623002349740727 -0.5153603542949412 0.5841454195877156" fill="#1b1b1a" transform="matrix(1,0,0,1,0,0)" fill-rule="nonzero"></path></g><g clip-path="url(#a002fe9f9-8815-4e16-b380-1adc1294917a9b49774f-bc46-4df8-9003-03e250cf13d5)"><path d=" M -0.6597378660936446 0.661499205210523 L -0.6611535487587457 0.6580263586726961 C -0.6727886906625482 0.6281200623724286 -0.681150066403303 0.5967980834070596 -0.6910598450590131 0.5662945459824523 C -0.6943557312637028 0.557933170241697 -0.6974967771768963 0.5499035951255749 -0.7011244640062184 0.5417412997595995 C -0.7676836693076279 0.38356088197615773 -0.8929715851691036 0.29813328115394383 -1.0538064079496108 0.2561052020337453 C -1.0659060707279 0.2529641561205515 -1.0759928097167464 0.242567736548713 -1.0871634307460631 0.2353344829317104 C -1.1213167750416346 0.22115553623905387 -1.1554701193372061 0.20653418871355333 -1.189911024174127 0.19222252177104354 C -1.1929193498374673 0.1907847190642999 -1.1960603957506617 0.18970083702383161 -1.1992014416638552 0.18826303431708807 C -1.262464760760575 0.15333548856403892 -1.3279400840215159 0.1336707715441145 -1.3960698122795225 0.12296467138928494 C -1.4451763047252277 0.11524477685615372 -1.4956984798360344 0.11210373094295992 -1.547946018194934 0.11148436977697807 C -1.6576171846570098 0.11006868711187662 -1.764479105830525 0.1125682518174464 -1.871031346421049 0.1336707715441145 C -1.8806314444937682 0.1355509750837023 -1.8903863828579826 0.13774085920628107 -1.8999864809307017 0.13979802307900657 C -1.9328789828526678 0.1490884405687347 -1.9655945244414958 0.15837885805846277 -1.9984870263634615 0.1678241158396863 C -2.101743380749297 0.24303225742319934 -2.204800654760352 0.3184173593398501 -2.3078800488130486 0.3938024612565008 C -2.3467670820200532 0.4802033439109721 -2.3924007279279325 0.5640604217765892 -2.4219752236035665 0.6533147898029055 C -2.430646279927313 0.6792837186908596 -2.438675855043435 0.7020894816239779 -2.4503109969472376 0.7179937915647266 C -2.4503109969472376 0.7179937915647266 -2.4556640470246527 0.7359331453365587 -2.463516661807637 0.7655076410121932 C -2.4802172932475046 0.8275322377769493 -2.508066425675047 0.9405214104853565 -2.520652729369464 1.0431141636219252 C -2.52507311272075 1.08766560304264 -2.5265952259878173 1.1324571109308057 -2.5252094579477595 1.1772058560570005 L -2.5252094579477595 1.1773606963484962 C -2.5252094579477595 1.1806787025948275 -2.5250546176562643 1.1841294290910125 -2.524744937073273 1.1874474353373436 C -2.5245900967817776 1.1927783653731163 -2.5242804161987866 1.1979765751590357 -2.5239707356157957 1.2033075051948083 C -2.5219376657262647 1.2418702616135495 -2.5176761297934664 1.2802831704289448 -2.511207471588241 1.31835384177594 C -2.493909599024033 1.4203493537881702 -2.4608622568105716 1.5196462207200494 -2.411755764364866 1.6154923611557441 C -2.3184313086763835 1.7981817850787543 -2.164984579804374 1.9204613752768895 -1.976300624596326 1.9986778425237433 C -1.9035920477183823 2.0287389791155066 -1.8291802276339886 2.055017588586451 -1.7580421737126417 2.088219771091408 C -1.6404741523842974 2.143143834489015 -1.5158277177304456 2.172740450206291 -1.3908937225352451 2.144404676862621 C -1.2426452034491557 2.1108706937330304 -1.0942418440715702 2.067603892280869 -0.9562127842241823 2.005601415557755 C -0.8964223116652894 1.9785486046293326 -0.8482669810101982 1.9251950641883226 -0.7991604885644925 1.87451804878602 C -0.7855962366000657 1.8603851507560825 -0.771587209566543 1.8466859600234582 -0.7571545294859341 1.8334411314564343 C -0.755274325946349 1.8315609279168488 -0.7532171620736232 1.8298134446271141 -0.7513369585340355 1.828088081379022 C -0.750230956451925 1.826185757797792 -0.748815273786823 1.8244825145913417 -0.7480189522877039 1.8227350313016073 C -0.7079268379643437 1.7622424234085137 -0.6740300489945303 1.6978652030804053 -0.6468418818162363 1.6305782295557316 C -0.6449395582350057 1.626021500977436 -0.6432141949869141 1.621287812066003 -0.6414888317388217 1.616731083487708 C -0.6221153231926078 1.5666684424761221 -0.6061307036909183 1.515359513580964 -0.5936431816667218 1.4631516343658468 C -0.5821614472708969 1.4162618302587549 -0.5730219244855217 1.3688293311504829 -0.566258570113666 1.3210303668146488 C -0.5659488895306755 1.3181990014844456 -0.5654843686561888 1.3152127958627473 -0.564842887448564 1.312226590241049 C -0.5645332068655735 1.2980697635900347 -0.5640465659494449 1.2837359766058827 -0.5637368853664544 1.269733990246364 C -0.5632723644919677 1.248012109353714 -0.562807843617481 1.2261353881695687 -0.5621663624098572 1.204435627318561 C -0.5615470012438752 1.1824040658429202 -0.5607506797447552 1.1603725043672792 -0.5596446776626456 1.138318822849996 C -0.5509957413805413 0.9704055867439818 -0.5983547505365125 0.8146362534995409 -0.6597378660936446 0.661499205210523" fill="#fabd2e" transform="matrix(1,0,0,1,0,0)" fill-rule="nonzero"></path></g><g clip-path="url(#a002fe9f9-8815-4e16-b380-1adc1294917a9b49774f-bc46-4df8-9003-03e250cf13d5)"><path d=" M -3.4051889545581466 0.6536908305108232 C -3.4099226434695797 0.6420556886070209 -3.4146342123393705 0.6305532669530718 -3.4195006215006565 0.6189181250492695 C -3.4278619972414117 0.5990764476962074 -3.4344758896924326 0.5784605688856679 -3.441067662101811 0.5580216504082661 C -3.441067662101811 0.5580216504082661 -3.441067662101811 0.5578668101167706 -3.441244622434948 0.5577119698252752 C -3.446575552470721 0.5487312329185381 -3.5672846197122596 0.3444526483527312 -3.812618001566008 0.22108917611412754 C -3.8148300057302285 0.22044769490650346 -3.8171968501859452 0.219983174032017 -3.819386734308524 0.21936381286603518 C -3.8275711497161415 0.2174614892848052 -3.8348265233747862 0.2122632794988858 -3.842059776991789 0.20691022942147114 C -3.845628530956793 0.20419973373456501 -3.8493033437239355 0.20163179228282668 -3.8530755577296087 0.19921245492998246 C -3.8906796285213656 0.18410446648835294 -3.9283058193547644 0.16884163775522815 -3.965909890146521 0.15388848960509446 C -3.9731431437635236 0.14995112219278114 -3.9803763973805264 0.14632343536345874 -3.9876317710391707 0.14271786857577853 C -4.014469386132485 0.12992343883594146 -4.042307999846874 0.11934432174543508 -4.070869487738807 0.11108620902741856 C -4.09943097563074 0.10282809630940204 -4.301736362358549 0.10038010887258922 -4.561093850613458 0.19056351864787818 L -4.5625095332785595 0.19102803952236463 C -4.564952175281267 0.1917751899025665 -4.567365057189607 0.19261637809079538 -4.569742786895562 0.19354972426957656 C -4.7464819196168175 0.25632640245016775 -4.9353207151163625 0.36617452924538124 -5.072863134047623 0.5580216504082662 C -5.110071302819858 0.609952979337397 -5.142015420207008 0.6654606071145117 -5.168222633567189 0.7237228823500594 C -5.1944298469273695 0.7819851575856073 -5.296806435633354 1.1133674158775835 -5.228964267916696 1.414752983252691 C -5.230658295665782 1.4145769571492328 -5.2323417867530875 1.4143111427670267 -5.23400763741112 1.4139566617535717 C -5.225513541420511 1.4416509538896185 -5.215913443347793 1.4690355654426739 -5.204897662609972 1.4960883763710964 C -5.202685658445751 1.5016183867816488 -5.200495774323173 1.5072811174420546 -5.1981289298674564 1.5127890078109647 C -5.195142724245757 1.5200443814696096 -5.191979558290922 1.52725551504497 -5.188683672086232 1.5345108887036147 C -5.188683672086232 1.5345108887036147 -5.179791415346064 1.5560336892214848 -5.161343300616461 1.5907842746413963 C -5.159971858034644 1.5934165595968193 -5.158777375785965 1.5960930846355268 -5.157383813162506 1.5987032495493074 C -5.149304468434916 1.613783397871854 -5.1407244978126485 1.6285899335888707 -5.131658204732616 1.6430981731252225 C -5.020726195896934 1.8272475197966183 -4.7414385501223935 2.1762575368274026 -4.239026044302884 2.1247620798843387 C -4.235641677931627 2.1248063199676226 -4.2322351915187255 2.124319679051495 -4.228828705105826 2.124297559009852 C -4.223342934778557 2.1242090788432835 -4.217857164451289 2.123744557968797 -4.212327154040737 2.123501237510733 C -4.184455901571553 2.1222182750954843 -4.156540409019084 2.119276309557071 -4.128624916466616 2.112529696856197 C -3.9810178785881503 2.0768058296040284 -3.8330790400850514 2.031503984320783 -3.696178102361415 1.9672895034334477 C -3.6365203500523755 1.9394182509642635 -3.5893161811879004 1.8854453493572716 -3.5408511699498186 1.8338392922059963 C -3.5370686428290004 1.829901924793683 -3.5331312754166873 1.8258097170898742 -3.5293708683375113 1.8216953893444232 C -3.517713606392067 1.8095957265661344 -3.505923624196769 1.7977836243291945 -3.493956681668334 1.7866130032998786 C -3.4926958392947283 1.7848876400517861 -3.4914349969211225 1.7829853164705562 -3.490483835130507 1.781259953222464 C -3.4513042450645455 1.7202151674178399 -3.4184061824431966 1.655360257303079 -3.3922929702807387 1.5876874688114875 C -3.3834670736654964 1.56439506496224 -3.375127817966383 1.540792980530002 -3.3675848837663898 1.5168590954731311 C -3.3460178431652357 1.448264846340639 -3.3306001741406153 1.3774585930439254 -3.3202037545687766 1.3049048564574774 C -3.3187880719036755 1.295769279259245 -3.3175272295300693 1.2863461415196638 -3.316266387156463 1.2770557240299354 C -3.316111546864968 1.2740695184082371 -3.3154921856989863 1.2710611927448965 -3.315182505115995 1.2680971071648406 C -3.314872824533004 1.2537633201806886 -3.3146958641998663 1.23976133382117 -3.314541023908371 1.225737227420009 L -3.314541023908371 1.2230607023813016 C -3.31423134332538 1.1799487412206349 -3.3137447024092515 1.1369916203514634 -3.31232901974415 1.0940344994822924 C -3.306666289083745 0.9388624073621911 -3.3485395279124477 0.7947060959799103 -3.4051889545581466 0.6536908305108232" fill="#fabd2e" transform="matrix(1,0,0,1,0,0)" fill-rule="nonzero"></path></g><g clip-path="url(#a002fe9f9-8815-4e16-b380-1adc1294917a9b49774f-bc46-4df8-9003-03e250cf13d5)"><path d=" M -0.6597378660936446 0.661499205210523 C -0.6602245070097732 0.6603932031284124 -0.660689027884259 0.6591323607548066 -0.6611535487587457 0.6580263586726961 C -1.170887788361827 0.7291644125940425 -2.1023627419152784 0.8407379026373485 -2.463538781849279 0.7655076410121932 C -2.4802172932475046 0.8275322377769493 -2.508066425675047 0.9405214104853565 -2.5206748494111064 1.0431141636219252 C -2.5250841469623446 1.0876663398960034 -2.5266062357813874 1.1324571283476346 -2.525231577989402 1.177205856057 L -2.525231577989402 1.1773606963484962 C -2.525231577989402 1.1806787025948275 -2.5250767376979057 1.1841294290910125 -2.5247670571149152 1.1874474353373436 C -2.5246122168234195 1.1927783653731163 -2.524280416198786 1.1979765751590357 -2.5239707356157957 1.2033075051948083 C -2.5219135717430703 1.2420396981103172 -2.5176665237477662 1.2804179703595513 -2.511229591629883 1.3183538417759408 C -2.493909599024033 1.4203493537881702 -2.460862256810571 1.5196462207200494 -2.411755764364866 1.6154923611557441 C -2.3184313086763835 1.7981817850787543 -2.1650066998460167 1.9204613752768895 -1.9763227446379674 1.9986778425237433 C -1.9036141677600238 2.0287389791155066 -1.8291802276339881 2.055017588586451 -1.7580421737126417 2.088219771091408 C -1.6404962724259393 2.143143834489015 -1.5158277177304456 2.172740450206291 -1.3908937225352451 2.144404676862621 C -1.2426452034491557 2.1108706937330304 -1.0942418440715693 2.0676260123225108 -0.9562349042658234 2.005601415557755 C -0.8964223116652885 1.9785486046293326 -0.8482669810101973 1.9251950641883226 -0.7991826086061344 1.87451804878602 C -0.785610924855404 1.8603849766940808 -0.771594522692034 1.84668578784283 -0.7571545294859359 1.8334411314564363 C -0.7552522059047062 1.8315609279168488 -0.7532171620736223 1.8298134446271141 -0.7513369585340355 1.828088081379022 C -0.7502309564519241 1.826185757797792 -0.748815273786823 1.8244825145913417 -0.7480189522877039 1.8227350313016073 C -0.7079184280114648 1.7622474076486512 -0.6740211805314482 1.697869316512031 -0.6468418818162371 1.6305782295557325 C -0.6449616782766485 1.626021500977436 -0.6432141949869141 1.621287812066003 -0.6414888317388217 1.616731083487708 C -0.6221153231926078 1.5666684424761221 -0.6061307036909183 1.515359513580964 -0.5936431816667218 1.4631516343658468 C -0.5821614472708969 1.4162618302587549 -0.5730219244855217 1.3688293311504829 -0.566258570113666 1.3210303668146488 C -0.5659488895306755 1.3181990014844456 -0.565462248614546 1.3152127958627473 -0.564842887448564 1.312226590241049 C -0.5645332068655735 1.2980697635900347 -0.5640686859910868 1.2837359766058827 -0.5637368853664544 1.269733990246364 C -0.5632723644919677 1.248012109353714 -0.562807843617481 1.2261353881695687 -0.5621663624098572 1.204435627318561 C -0.5615470012438752 1.1824040658429202 -0.560772799786398 1.1603725043672792 -0.5596446776626456 1.138318822849996 C -0.5509957413805413 0.9704055867439818 -0.5983768705781554 0.8146362534995409 -0.6597378660936446 0.661499205210523" fill="#f2a220" transform="matrix(1,0,0,1,0,0)" fill-rule="nonzero"></path></g><g clip-path="url(#a002fe9f9-8815-4e16-b380-1adc1294917a9b49774f-bc46-4df8-9003-03e250cf13d5)"><path d=" M -5.072863134047623 0.5580437704499083 C -5.110075997201901 0.6099720773217281 -5.142020391688439 0.6654801866000046 -5.168222633567189 0.7237450023917018 C -5.1944248754459394 0.7820098181833992 -5.2968064356333535 1.1133895359192258 -5.228986387958338 1.4147751032943332 C -5.230671195392527 1.4145848219992194 -5.2323466267281304 1.4143191148270535 -5.23400763741112 1.4139787817952136 C -5.225513541420511 1.4416730739312602 -5.215913443347793 1.4690576854843158 -5.204897662609972 1.4961104964127383 C -5.202685658445751 1.5016405068232908 -5.200495774323173 1.5073032374836963 -5.1981289298674564 1.5128111278526069 C -5.195142724245757 1.5200443814696092 -5.191979558290922 1.527277635086612 -5.188683672086232 1.5345330087452567 C -5.188683672086232 1.5345330087452567 -5.179791415346064 1.5560336892214843 -5.161343300616461 1.590784274641396 C -5.159971858034644 1.5934165595968188 -5.158777375785965 1.5961152046771685 -5.157361693120864 1.5987253695909494 C -5.149265757879815 1.6140103183657162 -5.1405947015560685 1.6286980260161432 -5.131658204732616 1.6430981731252219 C -5.020704075855292 1.8272696398382602 -4.741438550122394 2.1762575368274026 -4.239026044302884 2.1247841999259807 C -4.235641677931627 2.1248284400092654 -4.2322351915187255 2.124341799093137 -4.228850825147468 2.124297559009852 C -4.223342934778557 2.1242311988849254 -4.2178350444096475 2.1237666780104396 -4.212327154040738 2.123501237510733 C -4.184455901571553 2.122240395137127 -4.156540409019085 2.1192984295987127 -4.128624916466616 2.112551816897839 C -3.9810178785881503 2.0768279496456703 -3.8330790400850514 2.031503984320782 -3.696178102361416 1.9672895034334477 C -3.636520350052376 1.9394403710059054 -3.5893161811879004 1.8854674693989137 -3.5408511699498186 1.833839292205996 C -3.537068642829001 1.829924044835325 -3.5331312754166877 1.825809717089874 -3.52934874829587 1.8217175093860651 C -3.5177136063920678 1.8096178466077766 -3.5059015041551276 1.7978057443708364 -3.493934561626692 1.7866351233415205 C -3.4926958392947283 1.784887640051786 -3.4914349969211225 1.7830074365121982 -3.490483835130507 1.781282073264106 C -3.4513129257283675 1.7202323174260978 -3.418415320382316 1.6553783087792644 -3.392292970280739 1.5877095888531298 C -3.383467073665497 1.5644171850038817 -3.3751278179663835 1.540815100571644 -3.3675848837663898 1.516881215514773 C -3.3460178431652357 1.4482869663822806 -3.3306001741406157 1.3774585930439252 -3.3202037545687766 1.3049048564574772 C -3.318788071903676 1.295791399300887 -3.3175272295300697 1.2863461415196633 -3.3162885071981054 1.2770557240299352 C -3.3161336669066097 1.274069518408237 -3.3154921856989863 1.2710833127865386 -3.3151825051159953 1.2680971071648401 C -3.3148507044913624 1.2537854402223307 -3.314717984241509 1.2397834538628119 -3.3145410239083715 1.2257593474616508 L -3.3145410239083715 1.2230828224229435 C -3.3142313433253805 1.1799708612622768 -3.313766822450894 1.1370137403931053 -3.3123511397857923 1.094034499482292 C -3.3066884091253868 0.9388624073621906 -3.3485395279124472 0.7947060959799099 -3.4051889545581466 0.653712950552465 C -3.818767373142542 0.6939935463829292 -4.678484911608665 0.6041198171906311 -5.072863134047623 0.5580437704499083" fill="#f2a220" transform="matrix(1,0,0,1,0,0)" fill-rule="nonzero"></path></g><g clip-path="url(#a002fe9f9-8815-4e16-b380-1adc1294917a9b49774f-bc46-4df8-9003-03e250cf13d5)"><path d=" M -2.5009658923078977 1.318353841775941 C -2.483645899702047 1.4203272337465278 -2.4505985574885862 1.5196462207200496 -2.4014920650428806 1.6154702411141022 C -2.30818972939604 1.7981817850787545 -2.154743000524031 1.9204392552352478 -1.966059045315982 1.9986778425237437 C -1.893350468438039 2.0287389791155066 -1.8189165283120028 2.05499546854481 -1.7477784743906568 2.088219771091408 C -1.630232573103954 2.143143834489015 -1.5055861384501021 2.17271833016465 -1.380630023213259 2.144404676862621 C -1.2323815041271695 2.110892813774674 -1.0839781447495849 2.067603892280869 -0.9459712049438389 2.005601415557755 C -0.8861807323849451 1.9785264845876902 -0.8380032816882128 1.9251950641883229 -0.7889189092841491 1.874495928744378 C -0.7753470336232127 1.8603701866082822 -0.7613306301219724 1.846678373503913 -0.746890830163947 1.8334411314564327 C -0.7450106266243628 1.8315388078752068 -0.7429534627516379 1.8298134446271144 -0.7410732592120493 1.82806596133738 C -0.7399672571299387 1.826185757797792 -0.7385515744648377 1.824482514591342 -0.7377773730073605 1.8227350313016075 C -0.697669841879212 1.7622479452090767 -0.6637652025205316 1.6978698901033145 -0.6365781824942509 1.6305782295557307 C -0.6346758589130204 1.6260215009774364 -0.6329504956649288 1.6212878120660035 -0.6312251324168354 1.6167310834877084 C -0.6118484694917337 1.5666620047127116 -0.595863793684706 1.5153455050344886 -0.5833794823447365 1.4631295143242042 C -1.0695116375155793 1.6216196126906366 -2.2073002194659215 1.3841167255782307 -2.5009658923078977 1.318353841775941" fill="#e6870f" transform="matrix(1,0,0,1,0,0)" fill-rule="nonzero"></path></g><g clip-path="url(#a002fe9f9-8815-4e16-b380-1adc1294917a9b49774f-bc46-4df8-9003-03e250cf13d5)"><path d=" M -5.221509813883272 1.4147751032943334 C -5.223203388684931 1.4145956282069798 -5.224886700971905 1.414329842056405 -5.226553183377695 1.4139787817952139 C -5.218059087387087 1.4416730739312604 -5.208436869272726 1.469057685484316 -5.197443208576548 1.4961104964127385 C -5.195231204412327 1.5016405068232908 -5.193019200248106 1.5073032374836965 -5.190674475834031 1.5128111278526069 C -5.187666150170691 1.5200665015112516 -5.184525104257497 1.527277635086612 -5.181229218052808 1.5345330087452569 C -5.181229218052808 1.5345330087452569 -5.172314841270997 1.5561000493464112 -5.153800366416467 1.5909169948912496 C -5.152473163917935 1.59352715980503 -5.151278681669256 1.5961594447604532 -5.1499072390874385 1.5987253695909496 C -5.14181130384639 1.6140103183657164 -5.133118127481001 1.6286980260161434 -5.124203750699191 1.6431202931668643 C -5.013249621821867 1.8272696398382604 -4.733961976047327 2.1762575368274026 -4.23157159026946 2.1247841999259807 C -4.19440651740768 2.125297074896631 -4.157321812560464 2.121188110404442 -4.121170462433191 2.112551816897839 C -3.973541304513083 2.0768279496456703 -3.825624586051627 2.031526104362425 -3.688701528286349 1.96731162347509 C -3.6290658960189512 1.939440371005906 -3.5818396071128333 1.8854674693989142 -3.5333745958747516 1.8338614122476387 C -3.5295920687539337 1.8299240448353253 -3.5256768213832625 1.8258318371315168 -3.5218942942624447 1.8217175093860656 C -3.5102370323170002 1.809617846607777 -3.4984470501217024 1.797805744370837 -3.486480107593267 1.786635123341521 C -3.485219265219661 1.7849097600934287 -3.4839805428876973 1.7830074365121986 -3.483029381097082 1.7812820732641064 C -3.4438514792909727 1.720232855631136 -3.4109464819700364 1.6553788845600734 -3.3848163962056708 1.5877095888531292 C -3.3759334603303457 1.5643382413086653 -3.367694322960727 1.5407272487212436 -3.36010830969132 1.5169033355564074 C -3.33856338913181 1.448286966382281 -3.323123600065548 1.3774807130855677 -3.3127493005353514 1.3049269764991198 C -3.745196114640552 1.3692962976779501 -4.737589662876649 1.498477340868455 -5.221509813883272 1.4147751032943334" fill="#e6870f" transform="matrix(1,0,0,1,0,0)" fill-rule="nonzero"></path></g></g></g><defs><clipPath id="SvgjsClipPath1005"><path d=" M -5.407372723507943 -0.05530073003208291 h 5.007372723507943 v 2.376613960064166 h -5.007372723507943 Z"></path></clipPath><clipPath id="a002fe9f9-8815-4e16-b380-1adc1294917a9b49774f-bc46-4df8-9003-03e250cf13d5"><path d=" M -5.407362403761118 2.3213207699170146 L -0.3999822170891756 2.3213207699170146 L -0.3999822170891756 -0.05530074420528291 L -5.407362403761118 -0.05530074420528291 Z"></path></clipPath></defs></svg>